ModelForces
version=1
nRows=4
nColumns=155
inDegrees=no

This file contains the forces exerted on a model during a simulation.

A force is a generalized force, meaning that it can be either a force (N) or a torque (Nm).

Units are S.I. units (second, meters, Newtons, ...)
Angles are in degrees.

endheader
time	glut_med1_r	glut_med2_r	glut_med3_r	glut_min1_r	glut_min2_r	glut_min3_r	semimem_r	semiten_r	bifemlh_r	bifemsh_r	sar_r	add_long_r	add_brev_r	add_mag1_r	add_mag2_r	add_mag3_r	tfl_r	pect_r	grac_r	glut_max1_r	glut_max2_r	glut_max3_r	iliacus_r	psoas_r	quad_fem_r	gem_r	peri_r	rect_fem_r	vas_med_r	vas_int_r	vas_lat_r	med_gas_r	lat_gas_r	soleus_r	tib_post_r	flex_dig_r	flex_hal_r	tib_ant_r	per_brev_r	per_long_r	per_tert_r	ext_dig_r	ext_hal_r	glut_med1_l	glut_med2_l	glut_med3_l	glut_min1_l	glut_min2_l	glut_min3_l	semimem_l	semiten_l	bifemlh_l	bifemsh_l	sar_l	add_long_l	add_brev_l	add_mag1_l	add_mag2_l	add_mag3_l	tfl_l	pect_l	grac_l	glut_max1_l	glut_max2_l	glut_max3_l	iliacus_l	psoas_l	quad_fem_l	gem_l	peri_l	rect_fem_l	vas_med_l	vas_int_l	vas_lat_l	med_gas_l	lat_gas_l	soleus_l	tib_post_l	flex_dig_l	flex_hal_l	tib_ant_l	per_brev_l	per_long_l	per_tert_l	ext_dig_l	ext_hal_l	ercspn_r	ercspn_l	intobl_r	intobl_l	extobl_r	extobl_l	femur_lat_meniscii_r.femur_lat_r.force.X	femur_lat_meniscii_r.femur_lat_r.force.Y	femur_lat_meniscii_r.femur_lat_r.force.Z	femur_lat_meniscii_r.femur_lat_r.torque.X	femur_lat_meniscii_r.femur_lat_r.torque.Y	femur_lat_meniscii_r.femur_lat_r.torque.Z	femur_lat_meniscii_r.meniscus_lat_r.force.X	femur_lat_meniscii_r.meniscus_lat_r.force.Y	femur_lat_meniscii_r.meniscus_lat_r.force.Z	femur_lat_meniscii_r.meniscus_lat_r.torque.X	femur_lat_meniscii_r.meniscus_lat_r.torque.Y	femur_lat_meniscii_r.meniscus_lat_r.torque.Z	femur_med_meniscii_r.femur_med_r.force.X	femur_med_meniscii_r.femur_med_r.force.Y	femur_med_meniscii_r.femur_med_r.force.Z	femur_med_meniscii_r.femur_med_r.torque.X	femur_med_meniscii_r.femur_med_r.torque.Y	femur_med_meniscii_r.femur_med_r.torque.Z	femur_med_meniscii_r.meniscus_med_r.force.X	femur_med_meniscii_r.meniscus_med_r.force.Y	femur_med_meniscii_r.meniscus_med_r.force.Z	femur_med_meniscii_r.meniscus_med_r.torque.X	femur_med_meniscii_r.meniscus_med_r.torque.Y	femur_med_meniscii_r.meniscus_med_r.torque.Z	femur_med_tibia_r.tibia_upper_r.force.X	femur_med_tibia_r.tibia_upper_r.force.Y	femur_med_tibia_r.tibia_upper_r.force.Z	femur_med_tibia_r.tibia_upper_r.torque.X	femur_med_tibia_r.tibia_upper_r.torque.Y	femur_med_tibia_r.tibia_upper_r.torque.Z	femur_med_tibia_r.femur_med_r.force.X	femur_med_tibia_r.femur_med_r.force.Y	femur_med_tibia_r.femur_med_r.force.Z	femur_med_tibia_r.femur_med_r.torque.X	femur_med_tibia_r.femur_med_r.torque.Y	femur_med_tibia_r.femur_med_r.torque.Z	femur_lat_tibia_r.tibia_upper_r.force.X	femur_lat_tibia_r.tibia_upper_r.force.Y	femur_lat_tibia_r.tibia_upper_r.force.Z	femur_lat_tibia_r.tibia_upper_r.torque.X	femur_lat_tibia_r.tibia_upper_r.torque.Y	femur_lat_tibia_r.tibia_upper_r.torque.Z	femur_lat_tibia_r.femur_lat_r.force.X	femur_lat_tibia_r.femur_lat_r.force.Y	femur_lat_tibia_r.femur_lat_r.force.Z	femur_lat_tibia_r.femur_lat_r.torque.X	femur_lat_tibia_r.femur_lat_r.torque.Y	femur_lat_tibia_r.femur_lat_r.torque.Z	aACL_R	pACL_R	aPCL_R	pPCL_R	aMCL_R	mMCL_R	pMCL_R	aLCL_R	mLCL_R	pLCL_R	aPCL_L	pPCL_L	aMCL_L	aLCL_L
      0.16711579	     11.30755149	      8.25604330	      8.87862445	      3.81361784	      4.43553191	      4.79227538	     16.96085865	    165.39161108	    173.68825086	    336.44517852	    126.33795825	      8.21583742	      5.91961194	      3.87536571	      3.59945017	      6.06219452	      6.34912669	      3.21876604	     97.69892391	      5.33057912	      8.10897287	      6.09273993	     27.38208239	     18.34092939	      5.24294845	      3.62876747	      6.21336805	     47.97202459	     29.78582133	     31.94868691	     43.32496863	      0.00000000	      0.00000000	      0.00000000	      0.00000000	      0.00000000	      0.00000000	     37.31539176	      3.46353995	      3.91543028	     22.12550568	     35.93259983	      9.29796110	     11.30755149	      8.25604330	      8.87862445	      3.81361784	      4.43553191	      4.79227538	      0.00000000	      6.11391398	     12.07221196	     10.43528496	      2.17606730	      8.21583742	      5.91961194	      3.87536571	      3.59945017	      6.06219452	      5.38056160	      3.21876604	      2.24599108	      5.33057912	      8.10897287	      6.09273993	     27.38208239	     18.34092939	      5.24294845	      3.62876747	      6.21336805	     16.79999755	      0.00000000	      0.00000000	      0.00000000	     21.10368390	      9.96147951	     50.28021654	     50.70643003	      5.39267989	      4.82309201	     13.08164683	      6.99299593	     18.01782955	      2.83587653	      8.72059691	      2.74160522	     35.89556327	     35.89556327	     13.32633750	     13.32633750	     30.70411104	     30.70411104	    402.03043476	    302.21249049	    101.87411995	    -48.34255392	     10.02337201	    161.12791235	   -402.03043476	   -302.21249049	   -101.87411995	      9.76577571	    -12.79426634	     -0.67069514	    745.24752089	    517.83315327	    -42.71537562	     27.40114186	    -14.34602762	    296.44409044	   -745.24752089	   -517.83315327	     42.71537562	     -9.73038528	     13.38733326	      0.23230835	   -127.45120628	   -288.06259110	    105.20082587	     -6.49281646	      4.14343783	      3.55969018	    127.45120628	    288.06259110	   -105.20082587	     47.72195935	     -2.54118955	     50.77687740	      0.00000000	      0.00000000	      0.00000000	      0.00000000	      0.00000000	      0.00000000	      0.00000000	      0.00000000	      0.00000000	      0.00000000	      0.00000000	      0.00000000	     31.01051637	     20.61367177	    785.13229667	    506.92931982	      0.00000000	      0.00000000	      0.00000000	    -13.32032003	      0.00000000	      0.00000000	      0.00000000	      0.00000000	      0.00000001	      0.00000000
      0.16744340	     11.29207784	      8.24487800	      8.86647303	      3.80867206	      4.43012169	      4.78536332	     15.18798629	    165.54240624	    173.86753995	    336.79063116	    126.40852196	      8.20459845	      5.91200638	      3.90432241	      3.59449336	      6.05321205	      6.33992027	      3.21456194	     97.76450287	      5.32334232	      8.09793906	      6.08432016	     27.36151647	     18.31747769	      5.23600086	      3.62537635	      6.20955631	     48.19162726	     29.77449958	     31.93905559	     43.31187906	      0.00000000	      0.00000000	      0.00000000	      0.00000000	      0.00000000	      0.00000000	     37.35983335	      3.49696280	      3.96529548	     23.72957724	     36.10657420	      9.33714423	     11.29207784	      8.24487800	      8.86647303	      3.80867206	      4.43012169	      4.78536332	      0.00000000	      6.10511814	     12.05495244	     10.42144114	      2.17325839	      8.20459845	      5.91200638	      3.90432241	      3.59449336	      6.05321205	      5.37502429	      3.21456194	      2.24304093	      5.32334232	      8.09793906	      6.08432016	     27.36151647	     18.31747769	      5.23600086	      3.62537635	      6.20955631	     16.77401032	      0.00000000	      0.00000000	      0.00000000	     21.09471911	      9.95613740	     50.21609993	     50.67323061	      5.38501790	      4.81598657	     13.06245712	      6.98214095	     17.99734812	      2.83226352	      8.70775669	      2.73787981	     35.84890660	     35.84890660	     13.30761779	     13.30761779	     30.68714672	     30.68714672	    404.83832634	    307.17901545	    103.91497062	    -49.28712062	     10.10741958	    162.20165815	   -404.83832634	   -307.17901545	   -103.91497062	      9.92838806	    -12.92407172	     -0.53929371	    747.06994115	    507.82637052	    -39.53223921	     25.80344840	    -14.30790159	    297.26644715	   -747.06994115	   -507.82637052	     39.53223921	     -9.38565790	     13.29566783	     -0.01035905	   -128.46707320	   -286.82182983	    104.79462101	     -6.45958870	      4.15301582	      3.53087071	    128.46707320	    286.82182983	   -104.79462101	     47.53114809	     -2.55372414	     51.19574346	      0.00000000	      0.00000000	      0.00000000	      0.00000000	      0.00000000	      0.00000000	      0.00000000	      0.00000000	      0.00000000	      0.00000000	      0.00000000	      0.00000000	     31.28652492	     20.89004426	    788.26333495	    508.86818348	      0.00000000	      0.00000000	      0.00000000	    -13.01087882	      0.00000000	      0.00000000	      0.00000000	      0.00000000	      0.00000001	      0.00000000
      0.16808325	     11.26198705	      8.22321229	      8.84289423	      3.79907441	      4.41962337	      4.77194995	     11.96552975	    165.83605911	    174.20458025	    337.39068658	    126.52783978	      8.18279019	      5.89724702	      3.95043540	      3.58487510	      6.03578195	      6.32349653	      3.20640372	     97.87796215	      5.30930012	      8.07652916	      6.06798269	     27.32161304	     18.27197584	      5.22251906	      3.61879706	      6.20200228	     48.63124576	     29.76652525	     31.93644178	     43.30571132	      0.00000000	      0.00000000	      0.00000000	      0.00000000	      0.00000000	      0.00000000	     37.44751413	      3.55689243	      4.05797118	     52.83082661	     36.43425120	      9.41048444	     11.26198705	      8.22321229	      8.84289423	      3.79907441	      4.41962337	      4.77194995	      0.00000000	      6.08805084	     12.02138254	     10.39457734	      2.16780746	      8.18279019	      5.89724702	      3.95043540	      3.58487510	      6.03578195	      5.36427843	      3.20640372	      2.23731608	      5.30930012	      8.07652916	      6.06798269	     27.32161304	     18.27197584	      5.22251906	      3.61879706	      6.20200228	     16.72356681	      0.00000000	      0.00000000	      0.00000000	     21.07685997	      9.94555387	     50.09103833	     50.60870847	      5.36994779	      4.80196355	     13.02517561	      6.96105670	     17.95749825	      2.82525330	      8.68318483	      2.73078938	     35.75836637	     35.75836637	     13.27129429	     13.27129429	     30.65423212	     30.65423212	    410.05999211	    310.55415901	    105.78688225	    -50.12692633	     10.23718838	    164.27227210	   -410.05999211	   -310.55415901	   -105.78688225	     10.04107484	    -13.10468613	     -0.47013587	    751.15214323	    510.06079439	    -44.40645292	     27.70842668	    -14.31429707	    298.81250941	   -751.15214323	   -510.06079439	     44.40645292	     -9.41031547	     13.39705139	      0.17138860	   -129.00582849	   -284.70276426	    104.97639652	     -6.42607599	      4.18184940	      3.52559844	    129.00582849	    284.70276426	   -104.97639652	     47.56675216	     -2.56743128	     51.41071587	      0.00000000	      0.00000000	      0.00000000	      0.00000000	      0.00000000	      0.00000000	      0.00000000	      0.00000000	      0.00000000	      0.00000000	      0.00000000	      0.00000000	     31.88769106	     21.55422207	    794.34026884	    512.55307084	      0.00000000	      0.00000000	      0.00000000	    -12.67090761	      0.00000000	      0.00000000	      0.00000000	      0.00000000	      0.00000001	      0.00000000
      0.16839337	     11.24746535	      8.21277796	      8.83153875	      3.79445185	      4.41456728	      4.76548962	     10.50931214	    165.97023186	    174.35203508	    337.59993707	    126.57098843	      8.17228740	      5.89013827	      3.96854316	      3.58024297	      6.02738750	      6.31616032	      3.20247450	     97.92130141	      5.30253752	      8.06621835	      6.06011478	     27.30239706	     18.25006424	      5.21602599	      3.61562892	      6.19828990	     48.83806573	     29.73979073	     31.91155446	     43.28052346	      0.00000000	      0.00000000	      0.00000000	      0.00000000	      0.00000000	      0.00000000	     37.49031070	      3.58375217	      4.10091135	     35.02950231	     36.60994385	      9.45072826	     11.24746535	      8.21277796	      8.83153875	      3.79445185	      4.41456728	      4.76548962	      0.00000000	      6.07983141	     12.00517848	     10.38163932	      2.16518208	      8.17228740	      5.89013827	      3.96854316	      3.58024297	      6.02738750	      5.35910271	      3.20247450	      2.23455886	      5.30253752	      8.06621835	      6.06011478	     27.30239706	     18.25006424	      5.21602599	      3.61562892	      6.19828990	     16.69926520	      0.00000000	      0.00000000	      0.00000000	     21.06803932	      9.94035389	     50.03050519	     50.57758738	      5.36259279	      4.79509708	     13.00719984	      6.95089273	     17.93825639	      2.82187745	      8.67151337	      2.72743985	     35.71475918	     35.71475918	     13.25380122	     13.25380122	     30.63838205	     30.63838205	    411.35210335	    312.44619113	    107.30175487	    -50.78912595	     10.28155702	    164.76372685	   -411.35210335	   -312.44619113	   -107.30175487	     10.11694544	    -13.18204255	     -0.39705199	    752.13985227	    496.82337218	    -47.68879238	     28.81262421	    -14.30778791	    299.31569633	   -752.13985227	   -496.82337218	     47.68879238	     -9.28082270	     13.45597517	     -0.13752237	   -129.23342226	   -284.16491734	    104.61534023	     -6.40179118	      4.18366466	      3.53612373	    129.23342226	    284.16491734	   -104.61534023	     47.40392287	     -2.57005993	     51.49763749	      0.00000000	      0.00000000	      0.00000000	      0.00000000	      0.00000000	      0.00000000	      0.00000000	      0.00000000	      0.00000000	      0.00000000	      0.00000000	      0.00000000	     31.92542602	     21.62902013	    797.32059295	    514.43454563	      0.00000000	      0.00000000	      0.00000000	    -12.65022750	      0.00000000	      0.00000000	      0.00000000	      0.00000000	      0.00000001	      0.00000000
